{
  "accessors": [
    {
      "bufferView": 2,
      "componentType": 5126,
      "count": 22780,
      "max": [
        15.5,
        1.31671142578125,
        11.0
      ],
      "min": [
        -15.5,
        -8.326672684688674e-17,
        -11.0
      ],
      "type": "VEC3"
    },
    {
      "bufferView": 2,
      "byteOffset": 273360,
      "componentType": 5126,
      "count": 22780,
      "max": [
        1.0,
        1.0,
        1.0
      ],
      "min": [
        -1.0,
        -1.0,
        -1.0
      ],
      "type": "VEC3"
    },
    {
      "bufferView": 3,
      "componentType": 5126,
      "count": 22780,
      "max": [
        1.0,
        0.9918512105941772,
        1.0,
        1.0
      ],
      "min": [
        -0.9999740123748779,
        -0.9918511509895325,
        -1.0,
        -1.0
      ],
      "type": "VEC4"
    },
    {
      "bufferView": 1,
      "componentType": 5126,
      "count": 22780,
      "max": [
        0.9995086193084717,
        0.9995086193084717
      ],
      "min": [
        0.0004913625889457762,
        0.0017203092575073242
      ],
      "type": "VEC2"
    },
    {
      "bufferView": 0,
      "componentType": 5125,
      "count": 134568,
      "type": "SCALAR"
    },
    {
      "bufferView": 2,
      "byteOffset": 546720,
      "componentType": 5126,
      "count": 4519,
      "max": [
        14.075220108032227,
        0.42037224769592285,
        11.609094619750977
      ],
      "min": [
        -14.075220108032227,
        -0.42037224769592285,
        -12.128166198730469
      ],
      "type": "VEC3"
    },
    {
      "bufferView": 2,
      "byteOffset": 600948,
      "componentType": 5126,
      "count": 4519,
      "max": [
        1.0,
        1.0,
        1.0
      ],
      "min": [
        -1.0,
        0.0,
        -0.9999960660934448
      ],
      "type": "VEC3"
    },
    {
      "bufferView": 3,
      "byteOffset": 364480,
      "componentType": 5126,
      "count": 4519,
      "max": [
        1.0,
        0.4843025803565979,
        0.999889612197876,
        1.0
      ],
      "min": [
        -1.0,
        -0.3310244381427765,
        -1.0,
        1.0
      ],
      "type": "VEC4"
    },
    {
      "bufferView": 1,
      "byteOffset": 182240,
      "componentType": 5126,
      "count": 4519,
      "max": [
        0.99904865026474,
        0.9996744394302368
      ],
      "min": [
        0.00032556295627728105,
        0.0015583038330078125
      ],
      "type": "VEC2"
    },
    {
      "bufferView": 0,
      "byteOffset": 538272,
      "componentType": 5125,
      "count": 24717,
      "type": "SCALAR"
    },
    {
      "bufferView": 2,
      "byteOffset": 655176,
      "componentType": 5126,
      "count": 4999,
      "max": [
        5.9604973793029785,
        0.2990571856498718,
        0.29878923296928406
      ],
      "min": [
        -7.0,
        -0.49985507130622864,
        -0.29878923296928406
      ],
      "type": "VEC3"
    },
    {
      "bufferView": 2,
      "byteOffset": 715164,
      "componentType": 5126,
      "count": 4999,
      "max": [
        0.9999999403953552,
        1.0,
        1.0
      ],
      "min": [
        -1.0,
        -1.0,
        -1.0
      ],
      "type": "VEC3"
    },
    {
      "bufferView": 3,
      "byteOffset": 436784,
      "componentType": 5126,
      "count": 4999,
      "max": [
        1.0,
        0.9999966621398926,
        1.0,
        1.0
      ],
      "min": [
        -1.0,
        -0.9999931454658508,
        -1.0,
        -1.0
      ],
      "type": "VEC4"
    },
    {
      "bufferView": 1,
      "byteOffset": 218392,
      "componentType": 5126,
      "count": 4999,
      "max": [
        0.9985566139221191,
        0.9985566139221191
      ],
      "min": [
        0.0014434128534048796,
        0.5094691514968872
      ],
      "type": "VEC2"
    },
    {
      "bufferView": 0,
      "byteOffset": 637140,
      "componentType": 5125,
      "count": 26880,
      "type": "SCALAR"
    }
  ],
  "asset": {
    "extras": {
      "author": "Kami Rapacz (https://sketchfab.com/kuroderuta)",
      "license": "CC-BY-4.0 (http://creativecommons.org/licenses/by/4.0/)",
      "source": "https://sketchfab.com/3d-models/document-clipboard-with-pen-8650234a2e7949ca9fe9b4124e000d97",
      "title": "Document Clipboard with Pen"
    },
    "generator": "Sketchfab-15.27.0",
    "version": "2.0"
  },
  "bufferViews": [
    {
      "buffer": 0,
      "byteLength": 744660,
      "name": "floatBufferViews",
      "target": 34963
    },
    {
      "buffer": 0,
      "byteLength": 258384,
      "byteOffset": 744660,
      "byteStride": 8,
      "name": "floatBufferViews",
      "target": 34962
    },
    {
      "buffer": 0,
      "byteLength": 775152,
      "byteOffset": 1003044,
      "byteStride": 12,
      "name": "floatBufferViews",
      "target": 34962
    },
    {
      "buffer": 0,
      "byteLength": 516768,
      "byteOffset": 1778196,
      "byteStride": 16,
      "name": "floatBufferViews",
      "target": 34962
    }
  ],
  "buffers": [
    {
      "byteLength": 2294964,
      "uri": "scene.bin"
    }
  ],
  "images": [
    {
      "uri": "textures/Tablet_baseColor.png"
    },
    {
      "uri": "textures/Tablet_metallicRoughness.png"
    },
    {
      "uri": "textures/Tablet_normal.png"
    },
    {
      "uri": "textures/Paper_baseColor.png"
    },
    {
      "uri": "textures/Paper_metallicRoughness.png"
    },
    {
      "uri": "textures/Paper_normal.png"
    },
    {
      "uri": "textures/material_baseColor.png"
    },
    {
      "uri": "textures/material_metallicRoughness.png"
    },
    {
      "uri": "textures/material_normal.png"
    }
  ],
  "materials": [
    {
      "doubleSided": true,
      "name": "Tablet",
      "normalTexture": {
        "index": 2
      },
      "pbrMetallicRoughness": {
        "baseColorTexture": {
          "index": 0
        },
        "metallicRoughnessTexture": {
          "index": 1
        }
      }
    },
    {
      "doubleSided": true,
      "name": "Paper",
      "normalTexture": {
        "index": 5
      },
      "pbrMetallicRoughness": {
        "baseColorTexture": {
          "index": 3
        },
        "metallicFactor": 0.0,
        "metallicRoughnessTexture": {
          "index": 4
        }
      }
    },
    {
      "doubleSided": true,
      "name": "material",
      "normalTexture": {
        "index": 8
      },
      "pbrMetallicRoughness": {
        "baseColorTexture": {
          "index": 6
        },
        "metallicRoughnessTexture": {
          "index": 7
        }
      }
    }
  ],
  "meshes": [
    {
      "name": "Tablet_Tablet_0",
      "primitives": [
        {
          "attributes": {
            "NORMAL": 1,
            "POSITION": 0,
            "TANGENT": 2,
            "TEXCOORD_0": 3
          },
          "indices": 4,
          "material": 0,
          "mode": 4
        }
      ]
    },
    {
      "name": "Paper_Paper_0",
      "primitives": [
        {
          "attributes": {
            "NORMAL": 6,
            "POSITION": 5,
            "TANGENT": 7,
            "TEXCOORD_0": 8
          },
          "indices": 9,
          "material": 1,
          "mode": 4
        }
      ]
    },
    {
      "name": "Pen_Pen_0",
      "primitives": [
        {
          "attributes": {
            "NORMAL": 11,
            "POSITION": 10,
            "TANGENT": 12,
            "TEXCOORD_0": 13
          },
          "indices": 14,
          "material": 2,
          "mode": 4
        }
      ]
    }
  ],
  "nodes": [
    {
      "children": [
        1
      ],
      "matrix": [
        -2.220446049250313e-16,
        -6.123234262925839e-17,
        1.0,
        0.0,
        1.0,
        1.6081226229577287e-16,
        2.2204460492503136e-16,
        0.0,
        -1.6081226229577292e-16,
        1.0,
        6.123234262925839e-17,
        0.0,
        0.0,
        0.0,
        0.0,
        1.0
      ],
      "name": "Sketchfab_model"
    },
    {
      "children": [
        2
      ],
      "matrix": [
        0.009999999776482582,
        0.0,
        0.0,
        0.0,
        0.0,
        0.0,
        0.009999999776482582,
        0.0,
        0.0,
        -0.009999999776482582,
        0.0,
        0.0,
        0.0,
        0.0,
        0.0,
        1.0
      ],
      "name": "Clipboard.fbx"
    },
    {
      "children": [
        3
      ],
      "name": "RootNode"
    },
    {
      "children": [
        4,
        5,
        7
      ],
      "matrix": [
        1.0,
        0.0,
        0.0,
        0.0,
        0.0,
        1.0,
        0.0,
        0.0,
        0.0,
        0.0,
        1.0,
        0.0,
        0.0,
        1.8596235662471372e-15,
        0.0,
        1.0
      ],
      "name": "Tablet"
    },
    {
      "mesh": 0,
      "name": "Tablet_Tablet_0"
    },
    {
      "children": [
        6
      ],
      "matrix": [
        1.0,
        0.0,
        0.0,
        0.0,
        0.0,
        1.0,
        0.0,
        0.0,
        0.0,
        0.0,
        1.0,
        0.0,
        1.0433579683303833,
        0.707170307636261,
        0.0,
        1.0
      ],
      "name": "Paper"
    },
    {
      "mesh": 1,
      "name": "Paper_Paper_0"
    },
    {
      "children": [
        8
      ],
      "matrix": [
        1.0,
        0.0,
        0.0,
        0.0,
        0.0,
        1.0,
        0.0,
        0.0,
        0.0,
        0.0,
        1.0,
        0.0,
        -8.260497093200684,
        1.2522326707839966,
        -5.9016547203063965,
        1.0
      ],
      "name": "Pen"
    },
    {
      "mesh": 2,
      "name": "Pen_Pen_0"
    }
  ],
  "samplers": [
    {
      "magFilter": 9729,
      "minFilter": 9987,
      "wrapS": 10497,
      "wrapT": 10497
    }
  ],
  "scene": 0,
  "scenes": [
    {
      "name": "Sketchfab_Scene",
      "nodes": [
        0
      ]
    }
  ],
  "textures": [
    {
      "sampler": 0,
      "source": 0
    },
    {
      "sampler": 0,
      "source": 1
    },
    {
      "sampler": 0,
      "source": 2
    },
    {
      "sampler": 0,
      "source": 3
    },
    {
      "sampler": 0,
      "source": 4
    },
    {
      "sampler": 0,
      "source": 5
    },
    {
      "sampler": 0,
      "source": 6
    },
    {
      "sampler": 0,
      "source": 7
    },
    {
      "sampler": 0,
      "source": 8
    }
  ]
}
